# xmcd CD database file
# Copyright (C) 1997 Ti Kan
# 
# Track frame offsets:
#     182
#     16187
#     32340
#     56657
#     73900
#     99120
#     113667
#     131452
#     147980
#     160925
#     182600
#     199400
# 
# Disc length: 2905 seconds
# 
# Revision: 1
# Processed by: cddbd v1.4b41PL1 Copyright (c) Steve Scherf et al.
# Submitted via: DiscPlay 4.0.4
# 
DISCID=9d0b570c
DTITLE=Ronnie Earl And The Broadcasters - Peace Of My Mind
DYEAR=1900
DGENRE=
TTITLE0=I Want To Shout About It
TTITLE1=I Wish You Could See Me Now
TTITLE2=Peace Of Mind
TTITLE3=T-bone Boogie
TTITLE4=Wayne's Blues
TTITLE5=Bonehead Too
TTITLE6=More Than I Deserve
TTITLE7=Can't Keep From Crying
TTITLE8=I Cried My Eyes Out
TTITLE9=No Use Crying
TTITLE10=Stickin'
TTITLE11=Wayward Angel
EXTD=
EXTT0=
EXTT1=
EXTT2=
EXTT3=
EXTT4=
EXTT5=
EXTT6=
EXTT7=
EXTT8=
EXTT9=
EXTT10=
EXTT11=
PLAYORDER=
